# xmcd CD database file
#
# Track frame offsets:
#	150
#	10865
#	20696
#	31305
#	41222
#	52411
#	63516
#	74564
#	86024
#	95504
#	107481
#	117962
#	129201
#	140662
#	148807
#	159738
#	170365
#	179512
#	191421
#	203412
#	213823
#	225380
#	235577
#	243206
#	255059
#	264568
#	274603
#	285300
#	295103
#	305050
#	317019
#	330490
#	341253
#
# Disc length: 4727 seconds
#
# Revision: 0
# Processed by: cddbd v1.5PL3 Copyright (c) Steve Scherf et al.
# Submitted via: Feurio! 1.67 - http://www.feurio.com
#
DISCID=d6127521
DTITLE=James Darren - Teenage Tears
DYEAR=1900
DGENRE=
TTITLE0=Goodbye Cruel World
TTITLE1=Mary's Little Lamb
TTITLE2=They Should Have Given You the Oscar
TTITLE3=Her Royal Majesty
TTITLE4=Gidget
TTITLE5=A Lot of Livin' to Do
TTITLE6=Gegetta (Gidget Goes to Rome)
TTITLE7=Conscience
TTITLE8=I Ain't Sharin' Sharon
TTITLE9=We Gotta Have Love
TTITLE10=Hail to the Conquering Hero
TTITLE11=Pin a Medal on Joey
TTITLE12=Gidget Goes Hawaiian
TTITLE13=Wild About that Girl
TTITLE14=Come on My Love
TTITLE15=I Don't Want to Lose Ya
TTITLE16=Angel Face
TTITLE17=Teenage Tears
TTITLE18=Backstage
TTITLE19=Punch and Judy
TTITLE20=Hear What I Wanna Hear
TTITLE21=If i Could Only Tell You
TTITLE22=You
TTITLE23=Because They're Young
TTITLE24=The Life of the Party
TTITLE25=Dream Big
TTITLE26=Valerie
TTITLE27=Just Think of Tonight
TTITLE28=Tom Hawk
TTITLE29=They Don't Know
TTITLE30=Grande Luna Italiana
TTITLE31=Goodbye Cruel World (Italian)
TTITLE32=Put on a Happy Face (with S. Fabares and P. Petersen)
EXTD=
EXTT0=
EXTT1=
EXTT2=
EXTT3=
EXTT4=
EXTT5=
EXTT6=
EXTT7=
EXTT8=
EXTT9=
EXTT10=
EXTT11=
EXTT12=
EXTT13=
EXTT14=
EXTT15=
EXTT16=
EXTT17=
EXTT18=
EXTT19=
EXTT20=
EXTT21=
EXTT22=
EXTT23=
EXTT24=
EXTT25=
EXTT26=
EXTT27=
EXTT28=
EXTT29=
EXTT30=
EXTT31=
EXTT32=
PLAYORDER=
